<mxfile host="65bd71144e">
    <diagram id="mbynM6EiDv0cm4Cm7i9c" name="Page-1">
        <mxGraphModel dx="1711" dy="630" grid="1" gridSize="10" guides="1" tooltips="1" connect="1" arrows="1" fold="1" page="1" pageScale="1" pageWidth="1169" pageHeight="827" math="0" shadow="0">
            <root>
                <mxCell id="0"/>
                <mxCell id="1" parent="0"/>
                <mxCell id="137" value="" style="edgeStyle=none;html=1;" edge="1" parent="1" source="PeakDepth" target="Summary">
                    <mxGeometry relative="1" as="geometry"/>
                </mxCell>
                <object label="Flood source" id="PeakDepth">
                    <mxCell style="shape=note;size=20;whiteSpace=wrap;html=1;strokeColor=default;align=center;verticalAlign=middle;fontFamily=Helvetica;fontSize=12;fontColor=default;fillColor=default;" parent="1" vertex="1">
                        <mxGeometry x="510" y="560" width="160" height="80" as="geometry"/>
                    </mxCell>
                </object>
                <mxCell id="78" value="" style="edgeStyle=none;html=1;entryX=0;entryY=0.5;entryDx=0;entryDy=0;entryPerimeter=0;" parent="1" source="InvestigationHome" target="Destination" edge="1">
                    <mxGeometry relative="1" as="geometry">
                        <mxPoint x="280" y="240" as="targetPoint"/>
                    </mxGeometry>
                </mxCell>
                <object label="Create home&lt;div&gt;(Postcode)&lt;/div&gt;" id="InvestigationHome">
                    <mxCell style="shape=note;size=20;whiteSpace=wrap;html=1;direction=east;strokeOpacity=100;" parent="1" vertex="1">
                        <mxGeometry x="40" y="200" width="160" height="80" as="geometry"/>
                    </mxCell>
                </object>
                <mxCell id="109" value="" style="edgeStyle=none;html=1;" parent="1" source="Destination" target="DamageToVehicles" edge="1">
                    <mxGeometry relative="1" as="geometry"/>
                </mxCell>
                <object label="Address" id="Destination">
                    <mxCell style="shape=note;size=20;whiteSpace=wrap;html=1;direction=east;" parent="1" vertex="1">
                        <mxGeometry x="520" y="200" width="160" height="80" as="geometry"/>
                    </mxCell>
                </object>
                <mxCell id="130" value="" style="edgeStyle=none;html=1;" parent="1" source="DamageToVehicles" target="126" edge="1">
                    <mxGeometry relative="1" as="geometry"/>
                </mxCell>
                <object label="Property type" id="DamageToVehicles">
                    <mxCell style="shape=note;size=20;whiteSpace=wrap;html=1;direction=east;" parent="1" vertex="1">
                        <mxGeometry x="760" y="200" width="160" height="80" as="geometry"/>
                    </mxCell>
                </object>
                <object label="Comfirmation" id="Confirmation">
                    <mxCell style="shape=note;size=20;whiteSpace=wrap;html=1;direction=east;" parent="1" vertex="1">
                        <mxGeometry x="1000" y="565" width="160" height="70" as="geometry"/>
                    </mxCell>
                </object>
                <mxCell id="89" value="" style="edgeStyle=none;html=1;" parent="1" source="Summary" target="Confirmation" edge="1">
                    <mxGeometry relative="1" as="geometry"/>
                </mxCell>
                <object label="Summary" id="Summary">
                    <mxCell style="shape=note;size=20;whiteSpace=wrap;html=1;direction=east;" parent="1" vertex="1">
                        <mxGeometry x="760" y="565" width="160" height="70" as="geometry"/>
                    </mxCell>
                </object>
                <object label="Location" id="120">
                    <mxCell style="shape=note;size=20;whiteSpace=wrap;html=1;direction=east;" parent="1" vertex="1">
                        <mxGeometry x="280" y="280" width="160" height="80" as="geometry"/>
                    </mxCell>
                </object>
                <object label="When" id="121">
                    <mxCell style="swimlane;fontStyle=0;childLayout=stackLayout;horizontal=1;startSize=30;horizontalStack=0;resizeParent=1;resizeParentMax=0;resizeLast=0;collapsible=1;marginBottom=0;whiteSpace=wrap;html=1;" parent="1" vertex="1">
                        <mxGeometry x="280" y="360" width="160" height="140" as="geometry">
                            <mxRectangle x="40" y="110" width="160" height="30" as="alternateBounds"/>
                        </mxGeometry>
                    </mxCell>
                </object>
                <mxCell id="122" value="Postcode is not known" style="text;strokeColor=none;fillColor=none;align=left;verticalAlign=middle;spacingLeft=4;spacingRight=4;overflow=hidden;points=[[0,0.5],[1,0.5]];portConstraint=eastwest;rotatable=0;whiteSpace=wrap;html=1;" parent="121" vertex="1">
                    <mxGeometry y="30" width="160" height="40" as="geometry"/>
                </mxCell>
                <mxCell id="123" value="SelectedAddress.Postcode is null" style="text;strokeColor=none;fillColor=none;align=left;verticalAlign=middle;spacingLeft=4;spacingRight=4;overflow=hidden;points=[[0,0.5],[1,0.5]];portConstraint=eastwest;rotatable=0;whiteSpace=wrap;html=1;" parent="121" vertex="1">
                    <mxGeometry y="70" width="160" height="70" as="geometry"/>
                </mxCell>
                <mxCell id="124" style="edgeStyle=orthogonalEdgeStyle;html=1;exitX=0;exitY=0;exitDx=160;exitDy=50;exitPerimeter=0;entryX=0;entryY=0.5;entryDx=0;entryDy=0;entryPerimeter=0;curved=1;" parent="1" source="InvestigationHome" target="120" edge="1">
                    <mxGeometry relative="1" as="geometry"/>
                </mxCell>
                <mxCell id="125" style="edgeStyle=orthogonalEdgeStyle;html=1;exitX=0;exitY=0;exitDx=160;exitDy=50;exitPerimeter=0;entryX=0;entryY=0.5;entryDx=0;entryDy=0;entryPerimeter=0;curved=1;" parent="1" source="120" target="Destination" edge="1">
                    <mxGeometry relative="1" as="geometry"/>
                </mxCell>
                <mxCell id="131" value="" style="edgeStyle=none;html=1;" parent="1" source="126" target="128" edge="1">
                    <mxGeometry relative="1" as="geometry"/>
                </mxCell>
                <object label="Flood areas" id="126">
                    <mxCell style="shape=note;size=20;whiteSpace=wrap;html=1;direction=east;" parent="1" vertex="1">
                        <mxGeometry x="1000" y="200" width="160" height="80" as="geometry"/>
                    </mxCell>
                </object>
                <mxCell id="134" value="" style="edgeStyle=orthogonalEdgeStyle;html=1;curved=1;" edge="1" parent="1" source="127" target="PeakDepth">
                    <mxGeometry relative="1" as="geometry"/>
                </mxCell>
                <object label="Flood duration" id="127">
                    <mxCell style="shape=note;size=20;whiteSpace=wrap;html=1;direction=east;" parent="1" vertex="1">
                        <mxGeometry x="280" y="640" width="160" height="80" as="geometry"/>
                    </mxCell>
                </object>
                <mxCell id="132" value="" style="edgeStyle=orthogonalEdgeStyle;html=1;" parent="1" source="128" target="129" edge="1">
                    <mxGeometry relative="1" as="geometry">
                        <Array as="points">
                            <mxPoint x="1320" y="530"/>
                            <mxPoint x="120" y="530"/>
                        </Array>
                    </mxGeometry>
                </mxCell>
                <object label="Vulnerability" id="128">
                    <mxCell style="shape=note;size=20;whiteSpace=wrap;html=1;direction=east;" parent="1" vertex="1">
                        <mxGeometry x="1240" y="200" width="160" height="80" as="geometry"/>
                    </mxCell>
                </object>
                <mxCell id="133" value="" style="edgeStyle=orthogonalEdgeStyle;html=1;curved=1;exitX=1.009;exitY=0.762;exitDx=0;exitDy=0;exitPerimeter=0;" edge="1" parent="1" source="129" target="127">
                    <mxGeometry relative="1" as="geometry">
                        <mxPoint x="140" y="700" as="sourcePoint"/>
                    </mxGeometry>
                </mxCell>
                <mxCell id="138" style="edgeStyle=none;html=1;exitX=0.979;exitY=0.5;exitDx=0;exitDy=0;exitPerimeter=0;" edge="1" parent="1" source="129" target="PeakDepth">
                    <mxGeometry relative="1" as="geometry">
                        <mxPoint x="240" y="580" as="sourcePoint"/>
                    </mxGeometry>
                </mxCell>
                <object label="Flood started" id="129">
                    <mxCell style="shape=note;size=20;whiteSpace=wrap;html=1;direction=east;" parent="1" vertex="1">
                        <mxGeometry x="40" y="560" width="160" height="80" as="geometry"/>
                    </mxCell>
                </object>
                <object label="When" id="139">
                    <mxCell style="swimlane;fontStyle=0;childLayout=stackLayout;horizontal=1;startSize=30;horizontalStack=0;resizeParent=1;resizeParentMax=0;resizeLast=0;collapsible=1;marginBottom=0;whiteSpace=wrap;html=1;" vertex="1" parent="1">
                        <mxGeometry x="280" y="720" width="160" height="140" as="geometry">
                            <mxRectangle x="40" y="110" width="160" height="30" as="alternateBounds"/>
                        </mxGeometry>
                    </mxCell>
                </object>
                <mxCell id="140" value="Flood ongoing is No" style="text;strokeColor=none;fillColor=none;align=left;verticalAlign=middle;spacingLeft=4;spacingRight=4;overflow=hidden;points=[[0,0.5],[1,0.5]];portConstraint=eastwest;rotatable=0;whiteSpace=wrap;html=1;" vertex="1" parent="139">
                    <mxGeometry y="30" width="160" height="40" as="geometry"/>
                </mxCell>
                <mxCell id="141" value="Eligibility check OnGoing = false" style="text;strokeColor=none;fillColor=none;align=left;verticalAlign=middle;spacingLeft=4;spacingRight=4;overflow=hidden;points=[[0,0.5],[1,0.5]];portConstraint=eastwest;rotatable=0;whiteSpace=wrap;html=1;" vertex="1" parent="139">
                    <mxGeometry y="70" width="160" height="70" as="geometry"/>
                </mxCell>
            </root>
        </mxGraphModel>
    </diagram>
</mxfile>